# xmcd CD database file
#
# Track frame offsets:
#	150
#	20833
#	35628
#	53795
#	70476
#	94219
#	122330
#	143349
#	157568
#	184310
#
# Disc length: 2609 seconds
#
# Revision: 2
# Processed by: cddbd v1.5.2PL0 Copyright (c) Steve Scherf et al.
# Submitted via: CDex 1.51
#
DISCID=800a2f0a
DTITLE=Spin Doctors - If The River Was Whiskey
DYEAR=2013
DGENRE=Blues
TTITLE0=Some Other Man Instead
TTITLE1=If The River Was Whiskey
TTITLE2=Sweetest Portion
TTITLE3=Traction Blues
TTITLE4=Scotch And Water Blues
TTITLE5=About A Train
TTITLE6=The Drop
TTITLE7=Ben's Looking Out The Window Blues
TTITLE8=So Bad
TTITLE9=What My Love?
EXTD=YEAR: 2013
EXTT0=
EXTT1=
EXTT2=
EXTT3=
EXTT4=
EXTT5=
EXTT6=
EXTT7=
EXTT8=
EXTT9=
PLAYORDER=
